<?xml version="1.0" encoding="utf-8"?>
<!-- Generator: Adobe Illustrator 26.2.1, SVG Export Plug-In . SVG Version: 6.00 Build 0)  -->
<svg version="1.1" id="Layer_1" xmlns="http://www.w3.org/2000/svg" xmlns:xlink="http://www.w3.org/1999/xlink" x="0px" y="0px"
	 viewBox="0 0 380 400" style="enable-background:new 0 0 380 400;" xml:space="preserve">
<g>
	<g>
		<g>
			<path d="M14.7,137.2c28.4-10.1,50.8-34,57.8-63.6c3-12.5-16.3-17.9-19.3-5.3c-5.4,22.5-21.9,41.8-43.8,49.6
				c-5.1,1.8-8.5,6.8-7,12.3C3.7,135.1,9.6,139,14.7,137.2L14.7,137.2z"/>
		</g>
	</g>
	<g>
		<g>
			<path d="M55.3,75.6c32.5,72.9,56.2,149.7,70.9,228.2c1,5.3,7.4,8.3,12.3,7c5.6-1.5,8-7,7-12.3c-11.6-62.1-28.9-123.1-51.7-182.1
				C87.1,99.3,80,82.3,72.5,65.6c-2.2-4.9-9.4-6.1-13.7-3.6C53.8,64.9,53.1,70.7,55.3,75.6L55.3,75.6z"/>
		</g>
	</g>
	<g>
		<g>
			<path d="M263.1,117.9c-22-7.8-38.5-27.1-43.8-49.6c-3-12.5-22.3-7.2-19.3,5.3c7,29.5,29.3,53.5,57.8,63.6c5.1,1.8,10.9-2,12.3-7
				C271.6,124.7,268.2,119.7,263.1,117.9L263.1,117.9z"/>
		</g>
	</g>
	<g>
		<g>
			<path d="M199.9,65.5c-25.9,58-46.6,118.1-61.5,179.8c-4.3,17.6-8,35.4-11.4,53.2c-1,5.3,1.5,10.8,7,12.3c4.9,1.3,11.3-1.7,12.3-7
				c14.7-78.5,38.3-155.3,70.9-228.2c2.2-4.9,1.4-10.8-3.6-13.7C209.3,59.5,202.1,60.6,199.9,65.5L199.9,65.5z"/>
		</g>
	</g>
	<g>
		<g>
			<path d="M257.4,137c37,8.7,77.3-9.4,96.5-41.9c10-16.8,13.8-37.8,8.7-56.8c-5.3-19.8-24.6-42-47.2-34.1
				c-21.3,7.4-31.7,32.5-36.7,52.6c-5.6,22.8-7.6,46.5-10.8,69.7c-6.7,47.8-14.5,96-32,141.3c-16.3,42.1-42.1,82.3-79.2,108.7
				c-4.4,3.1-6.5,8.7-3.6,13.7c2.5,4.3,9.3,6.7,13.7,3.6c68.2-48.5,97.8-130.3,112.2-209.6c4.1-22.7,7.3-45.5,10.5-68.3
				c2.9-21.1,4.7-43.1,11.4-63.4c3.8-11.5,16.3-39,32-26.3C345.4,36.3,347,55.4,343,70.1c-9,33.3-46.9,55.5-80.3,47.6
				C250.2,114.8,244.8,134.1,257.4,137L257.4,137z"/>
		</g>
	</g>
</g>
</svg>
